<?xml version="1.0" encoding="UTF-8"?>
<svg xmlns="http://www.w3.org/2000/svg" xmlns:xlink="http://www.w3.org/1999/xlink" width="30px" height="50px" viewBox="0 0 30 49" version="1.1">
<g id="surface1">
<path style=" stroke:none;fill-rule:evenodd;fill:rgb(35.294118%,61.568627%,92.941176%);fill-opacity:1;" d="M 14.980469 36.980469 L 29.972656 27.746094 L 14.980469 49 Z M 17.210938 38.1875 L 17.210938 42.027344 L 22.019531 35.226562 Z M 17.210938 38.1875 "/>
<path style=" stroke:none;fill-rule:evenodd;fill:rgb(84.705882%,58.431373%,82.745098%);fill-opacity:1;" d="M 16.507812 17.804688 L 27.582031 23.953125 L 26.488281 25.847656 L 15.414062 19.699219 Z M 16.507812 17.804688 "/>
<path style=" stroke:none;fill-rule:evenodd;fill:rgb(100%,61.176471%,57.254902%);fill-opacity:1;" d="M 14.980469 0 L 29.933594 25.230469 L 14.980469 34.484375 Z M 17.183594 8.078125 L 17.183594 30.558594 L 26.945312 24.523438 Z M 17.183594 8.078125 "/>
<path style=" stroke:none;fill-rule:evenodd;fill:rgb(32.54902%,82.745098%,87.843137%);fill-opacity:1;" d="M 15.027344 36.980469 L 0.0273438 27.746094 L 15.027344 49 Z M 12.796875 38.1875 L 12.796875 42.027344 L 7.992188 35.226562 Z M 12.796875 38.1875 "/>
<path style=" stroke:none;fill-rule:evenodd;fill:rgb(65.098039%,88.627451%,45.882353%);fill-opacity:1;" d="M 13.023438 18.007812 L 1.949219 24.15625 L 3.042969 26.046875 L 14.121094 19.902344 Z M 13.023438 18.007812 "/>
<path style=" stroke:none;fill-rule:evenodd;fill:rgb(100%,91.372549%,30.196078%);fill-opacity:1;" d="M 14.980469 0 L 0.0273438 25.230469 L 14.980469 34.472656 Z M 12.769531 8.078125 L 12.769531 30.558594 L 3.007812 24.523438 Z M 12.769531 8.078125 "/>
</g>
</svg>
